# xmcd CD database file
#
# Track frame offsets:
#	182
#	10852
#	61572
#	92317
#	130897
#	176677
#	209832
#	232015
#	281877
#
# Disc length: 4570 seconds
#
# Revision: 0
# Processed by: cddbd v1.5.1PL2 Copyright (c) Steve Scherf et al.
# Submitted via: CDex 1.51
#
DISCID=7a11d809
DTITLE=Gene Krupa - Live At The New School 1973
DYEAR=1973
DGENRE=Jazz
TTITLE0=Opening Remarks
TTITLE1=Don't Be That Way (Paris-Sampson-Goodman)
TTITLE2=Undecided (Robin-Shavers)
TTITLE3=Take The "A" Train (Strayhorn)
TTITLE4=Drumboogie (Krupa)
TTITLE5=As Long As I Live (Koehler-Arlen)
TTITLE6=Body And Soul (Heyman-Sour-Eyton-Green)
TTITLE7=Caravan (Mills-Tizol-Ellington)
TTITLE8=Sing, Sing, Sing (Prima)
EXTD=YEAR: 1973
EXTT0=
EXTT1=
EXTT2=
EXTT3=
EXTT4=
EXTT5=
EXTT6=
EXTT7=
EXTT8=
PLAYORDER=
